<svg xmlns="http://www.w3.org/2000/svg" xmlns:xlink="http://www.w3.org/1999/xlink" xmlns:sketch="http://www.bohemiancoding.com/sketch/ns" viewBox="0 0 50 62.5" version="1.1" x="0px" y="0px"><title>Cross</title><desc>Created with Sketch.</desc><g stroke="none" stroke-width="1" fill="none" fill-rule="evenodd" sketch:type="MSPage"><g sketch:type="MSArtboardGroup" fill="#000000"><path d="M25.5,48 C37.9264069,48 48,37.9264069 48,25.5 C48,13.0735931 37.9264069,3 25.5,3 C13.0735931,3 3,13.0735931 3,25.5 C3,37.9264069 13.0735931,48 25.5,48 Z M25.5000009,23.5418572 L13.9910084,12.0328647 C13.461707,11.5035632 12.5785016,11.4970479 12.0377757,12.0377738 C11.4932799,12.5822696 11.4948518,13.4529918 12.0328665,13.9910065 L23.5418591,25.4999991 L12.0488908,36.9929673 C11.5035642,37.538294 11.4970488,38.4214993 12.0377747,38.9622253 C12.5822705,39.506721 13.4601675,39.4979744 14.0070327,38.9511092 L25.5000009,27.4581409 L37.0089935,38.9671335 C37.5382949,39.4964349 38.4215002,39.5029503 38.9622262,38.9622243 C39.506722,38.4177285 39.50515,37.5470063 38.9671353,37.0089916 L27.4581428,25.4999991 L38.9511092,14.0070327 C39.4964358,13.461706 39.5029512,12.5785007 38.9622253,12.0377747 C38.4177295,11.493279 37.5398325,11.5020256 36.9929673,12.0488908 L25.5000009,23.5418572 L25.5000009,23.5418572 Z" sketch:type="MSShapeGroup"/></g></g><text x="0" y="65" fill="#000000" font-size="5px" font-weight="bold" font-family="'Helvetica Neue', Helvetica, Arial-Unicode, Arial, Sans-serif">Created by Philipp Heiler</text><text x="0" y="70" fill="#000000" font-size="5px" font-weight="bold" font-family="'Helvetica Neue', Helvetica, Arial-Unicode, Arial, Sans-serif">from the Noun Project</text></svg>